<mxfile host="Electron" agent="Mozilla/5.0 (Windows NT 10.0; Win64; x64) AppleWebKit/537.36 (KHTML, like Gecko) draw.io/24.7.17 Chrome/128.0.6613.36 Electron/32.0.1 Safari/537.36" version="24.7.17">
  <diagram name="Страница — 1" id="630q7QbDOJ4mKVeipmkb">
    <mxGraphModel dx="1246" dy="717" grid="1" gridSize="10" guides="1" tooltips="1" connect="1" arrows="1" fold="1" page="1" pageScale="1" pageWidth="1169" pageHeight="1654" math="0" shadow="0">
      <root>
        <mxCell id="0" />
        <mxCell id="1" parent="0" />
        <mxCell id="2C9hWDK-Eoa3HzLC0m5m-3" style="edgeStyle=orthogonalEdgeStyle;rounded=0;orthogonalLoop=1;jettySize=auto;html=1;" edge="1" parent="1" source="2C9hWDK-Eoa3HzLC0m5m-1" target="2C9hWDK-Eoa3HzLC0m5m-2">
          <mxGeometry relative="1" as="geometry" />
        </mxCell>
        <mxCell id="2C9hWDK-Eoa3HzLC0m5m-1" value="&lt;font color=&quot;#ff3333&quot;&gt;Start&lt;/font&gt;" style="ellipse;whiteSpace=wrap;html=1;" vertex="1" parent="1">
          <mxGeometry x="525" y="10" width="120" height="80" as="geometry" />
        </mxCell>
        <mxCell id="2C9hWDK-Eoa3HzLC0m5m-5" style="edgeStyle=orthogonalEdgeStyle;rounded=0;orthogonalLoop=1;jettySize=auto;html=1;" edge="1" parent="1" source="2C9hWDK-Eoa3HzLC0m5m-2" target="2C9hWDK-Eoa3HzLC0m5m-4">
          <mxGeometry relative="1" as="geometry" />
        </mxCell>
        <mxCell id="2C9hWDK-Eoa3HzLC0m5m-2" value="Enter the sides of cube" style="shape=parallelogram;perimeter=parallelogramPerimeter;whiteSpace=wrap;html=1;fixedSize=1;" vertex="1" parent="1">
          <mxGeometry x="505" y="120" width="160" height="60" as="geometry" />
        </mxCell>
        <mxCell id="2C9hWDK-Eoa3HzLC0m5m-8" style="edgeStyle=orthogonalEdgeStyle;rounded=0;orthogonalLoop=1;jettySize=auto;html=1;" edge="1" parent="1" source="2C9hWDK-Eoa3HzLC0m5m-4" target="2C9hWDK-Eoa3HzLC0m5m-7">
          <mxGeometry relative="1" as="geometry" />
        </mxCell>
        <mxCell id="2C9hWDK-Eoa3HzLC0m5m-4" value="Cycle 1" style="rounded=0;whiteSpace=wrap;html=1;" vertex="1" parent="1">
          <mxGeometry x="542" y="200" width="85" height="40" as="geometry" />
        </mxCell>
        <mxCell id="2C9hWDK-Eoa3HzLC0m5m-17" style="edgeStyle=orthogonalEdgeStyle;rounded=0;orthogonalLoop=1;jettySize=auto;html=1;entryX=0;entryY=0.5;entryDx=0;entryDy=0;" edge="1" parent="1" source="2C9hWDK-Eoa3HzLC0m5m-6" target="2C9hWDK-Eoa3HzLC0m5m-16">
          <mxGeometry relative="1" as="geometry" />
        </mxCell>
        <mxCell id="2C9hWDK-Eoa3HzLC0m5m-18" value="Yes" style="edgeLabel;html=1;align=center;verticalAlign=middle;resizable=0;points=[];" vertex="1" connectable="0" parent="2C9hWDK-Eoa3HzLC0m5m-17">
          <mxGeometry x="-0.2688" y="3" relative="1" as="geometry">
            <mxPoint as="offset" />
          </mxGeometry>
        </mxCell>
        <mxCell id="2C9hWDK-Eoa3HzLC0m5m-19" style="edgeStyle=orthogonalEdgeStyle;rounded=0;orthogonalLoop=1;jettySize=auto;html=1;" edge="1" parent="1" source="2C9hWDK-Eoa3HzLC0m5m-6">
          <mxGeometry relative="1" as="geometry">
            <mxPoint x="440" y="240" as="targetPoint" />
          </mxGeometry>
        </mxCell>
        <mxCell id="2C9hWDK-Eoa3HzLC0m5m-23" value="No" style="edgeLabel;html=1;align=center;verticalAlign=middle;resizable=0;points=[];" vertex="1" connectable="0" parent="2C9hWDK-Eoa3HzLC0m5m-19">
          <mxGeometry x="-0.585" y="-1" relative="1" as="geometry">
            <mxPoint as="offset" />
          </mxGeometry>
        </mxCell>
        <mxCell id="2C9hWDK-Eoa3HzLC0m5m-27" style="edgeStyle=orthogonalEdgeStyle;rounded=0;orthogonalLoop=1;jettySize=auto;html=1;" edge="1" parent="1" source="2C9hWDK-Eoa3HzLC0m5m-6" target="2C9hWDK-Eoa3HzLC0m5m-26">
          <mxGeometry relative="1" as="geometry" />
        </mxCell>
        <mxCell id="2C9hWDK-Eoa3HzLC0m5m-6" value="element&amp;lt;=0?" style="rhombus;whiteSpace=wrap;html=1;" vertex="1" parent="1">
          <mxGeometry x="542" y="330" width="85" height="70" as="geometry" />
        </mxCell>
        <mxCell id="2C9hWDK-Eoa3HzLC0m5m-10" style="edgeStyle=orthogonalEdgeStyle;rounded=0;orthogonalLoop=1;jettySize=auto;html=1;entryX=0.5;entryY=0;entryDx=0;entryDy=0;" edge="1" parent="1" source="2C9hWDK-Eoa3HzLC0m5m-7" target="2C9hWDK-Eoa3HzLC0m5m-6">
          <mxGeometry relative="1" as="geometry" />
        </mxCell>
        <mxCell id="2C9hWDK-Eoa3HzLC0m5m-7" value="Enter element of array" style="shape=parallelogram;perimeter=parallelogramPerimeter;whiteSpace=wrap;html=1;fixedSize=1;" vertex="1" parent="1">
          <mxGeometry x="497" y="270" width="175" height="30" as="geometry" />
        </mxCell>
        <mxCell id="2C9hWDK-Eoa3HzLC0m5m-42" style="edgeStyle=orthogonalEdgeStyle;rounded=0;orthogonalLoop=1;jettySize=auto;html=1;entryX=0.5;entryY=0;entryDx=0;entryDy=0;" edge="1" parent="1" source="2C9hWDK-Eoa3HzLC0m5m-16" target="2C9hWDK-Eoa3HzLC0m5m-43">
          <mxGeometry relative="1" as="geometry">
            <mxPoint x="920" y="560" as="targetPoint" />
          </mxGeometry>
        </mxCell>
        <mxCell id="2C9hWDK-Eoa3HzLC0m5m-16" value="ERROR" style="shape=parallelogram;perimeter=parallelogramPerimeter;whiteSpace=wrap;html=1;fixedSize=1;" vertex="1" parent="1">
          <mxGeometry x="672" y="342.5" width="90" height="45" as="geometry" />
        </mxCell>
        <mxCell id="2C9hWDK-Eoa3HzLC0m5m-22" style="edgeStyle=orthogonalEdgeStyle;rounded=0;orthogonalLoop=1;jettySize=auto;html=1;" edge="1" parent="1" source="2C9hWDK-Eoa3HzLC0m5m-20">
          <mxGeometry relative="1" as="geometry">
            <mxPoint x="540" y="220" as="targetPoint" />
          </mxGeometry>
        </mxCell>
        <mxCell id="2C9hWDK-Eoa3HzLC0m5m-20" value="i++" style="rounded=0;whiteSpace=wrap;html=1;" vertex="1" parent="1">
          <mxGeometry x="400" y="200" width="80" height="40" as="geometry" />
        </mxCell>
        <mxCell id="2C9hWDK-Eoa3HzLC0m5m-30" style="edgeStyle=orthogonalEdgeStyle;rounded=0;orthogonalLoop=1;jettySize=auto;html=1;entryX=0.5;entryY=0;entryDx=0;entryDy=0;" edge="1" parent="1" source="2C9hWDK-Eoa3HzLC0m5m-26" target="2C9hWDK-Eoa3HzLC0m5m-29">
          <mxGeometry relative="1" as="geometry" />
        </mxCell>
        <mxCell id="2C9hWDK-Eoa3HzLC0m5m-26" value="Cycle 2" style="rounded=0;whiteSpace=wrap;html=1;" vertex="1" parent="1">
          <mxGeometry x="542" y="430" width="85" height="40" as="geometry" />
        </mxCell>
        <mxCell id="2C9hWDK-Eoa3HzLC0m5m-33" style="edgeStyle=orthogonalEdgeStyle;rounded=0;orthogonalLoop=1;jettySize=auto;html=1;entryX=0;entryY=0.5;entryDx=0;entryDy=0;" edge="1" parent="1" source="2C9hWDK-Eoa3HzLC0m5m-29" target="2C9hWDK-Eoa3HzLC0m5m-32">
          <mxGeometry relative="1" as="geometry" />
        </mxCell>
        <mxCell id="2C9hWDK-Eoa3HzLC0m5m-34" value="Yes" style="edgeLabel;html=1;align=center;verticalAlign=middle;resizable=0;points=[];" vertex="1" connectable="0" parent="2C9hWDK-Eoa3HzLC0m5m-33">
          <mxGeometry x="-0.2055" relative="1" as="geometry">
            <mxPoint as="offset" />
          </mxGeometry>
        </mxCell>
        <mxCell id="2C9hWDK-Eoa3HzLC0m5m-35" style="edgeStyle=orthogonalEdgeStyle;rounded=0;orthogonalLoop=1;jettySize=auto;html=1;entryX=0.5;entryY=1;entryDx=0;entryDy=0;" edge="1" parent="1" source="2C9hWDK-Eoa3HzLC0m5m-29" target="2C9hWDK-Eoa3HzLC0m5m-36">
          <mxGeometry relative="1" as="geometry">
            <mxPoint x="440" y="480" as="targetPoint" />
          </mxGeometry>
        </mxCell>
        <mxCell id="2C9hWDK-Eoa3HzLC0m5m-38" value="No" style="edgeLabel;html=1;align=center;verticalAlign=middle;resizable=0;points=[];" vertex="1" connectable="0" parent="2C9hWDK-Eoa3HzLC0m5m-35">
          <mxGeometry x="-0.4935" y="-1" relative="1" as="geometry">
            <mxPoint as="offset" />
          </mxGeometry>
        </mxCell>
        <mxCell id="2C9hWDK-Eoa3HzLC0m5m-41" style="edgeStyle=orthogonalEdgeStyle;rounded=0;orthogonalLoop=1;jettySize=auto;html=1;" edge="1" parent="1" source="2C9hWDK-Eoa3HzLC0m5m-29" target="2C9hWDK-Eoa3HzLC0m5m-40">
          <mxGeometry relative="1" as="geometry" />
        </mxCell>
        <mxCell id="2C9hWDK-Eoa3HzLC0m5m-29" value="pres element&amp;gt;prev element?&amp;nbsp;" style="rhombus;whiteSpace=wrap;html=1;" vertex="1" parent="1">
          <mxGeometry x="542.75" y="500" width="84.5" height="80" as="geometry" />
        </mxCell>
        <mxCell id="2C9hWDK-Eoa3HzLC0m5m-44" style="edgeStyle=orthogonalEdgeStyle;rounded=0;orthogonalLoop=1;jettySize=auto;html=1;entryX=0.5;entryY=0;entryDx=0;entryDy=0;" edge="1" parent="1" source="2C9hWDK-Eoa3HzLC0m5m-32" target="2C9hWDK-Eoa3HzLC0m5m-43">
          <mxGeometry relative="1" as="geometry">
            <mxPoint x="920" y="540" as="targetPoint" />
          </mxGeometry>
        </mxCell>
        <mxCell id="2C9hWDK-Eoa3HzLC0m5m-32" value="LOSS" style="shape=parallelogram;perimeter=parallelogramPerimeter;whiteSpace=wrap;html=1;fixedSize=1;" vertex="1" parent="1">
          <mxGeometry x="672" y="517.5" width="90" height="45" as="geometry" />
        </mxCell>
        <mxCell id="2C9hWDK-Eoa3HzLC0m5m-37" style="edgeStyle=orthogonalEdgeStyle;rounded=0;orthogonalLoop=1;jettySize=auto;html=1;entryX=0;entryY=0.5;entryDx=0;entryDy=0;" edge="1" parent="1" source="2C9hWDK-Eoa3HzLC0m5m-36" target="2C9hWDK-Eoa3HzLC0m5m-26">
          <mxGeometry relative="1" as="geometry" />
        </mxCell>
        <mxCell id="2C9hWDK-Eoa3HzLC0m5m-36" value="i++" style="rounded=0;whiteSpace=wrap;html=1;" vertex="1" parent="1">
          <mxGeometry x="397.5" y="430" width="85" height="40" as="geometry" />
        </mxCell>
        <mxCell id="2C9hWDK-Eoa3HzLC0m5m-45" style="edgeStyle=orthogonalEdgeStyle;rounded=0;orthogonalLoop=1;jettySize=auto;html=1;entryX=0;entryY=0.5;entryDx=0;entryDy=0;" edge="1" parent="1" source="2C9hWDK-Eoa3HzLC0m5m-40" target="2C9hWDK-Eoa3HzLC0m5m-43">
          <mxGeometry relative="1" as="geometry" />
        </mxCell>
        <mxCell id="2C9hWDK-Eoa3HzLC0m5m-40" value="WIN" style="shape=parallelogram;perimeter=parallelogramPerimeter;whiteSpace=wrap;html=1;fixedSize=1;" vertex="1" parent="1">
          <mxGeometry x="540" y="610" width="90" height="45" as="geometry" />
        </mxCell>
        <mxCell id="2C9hWDK-Eoa3HzLC0m5m-43" value="&lt;font color=&quot;#ff3333&quot;&gt;End&lt;/font&gt;" style="ellipse;whiteSpace=wrap;html=1;" vertex="1" parent="1">
          <mxGeometry x="860" y="592.5" width="120" height="80" as="geometry" />
        </mxCell>
      </root>
    </mxGraphModel>
  </diagram>
</mxfile>
